<svg id="图层_x0020_1" xmlns="http://www.w3.org/2000/svg" width="16" height="16" viewBox="0 0 16 16">
  <path id="Path_22588" data-name="Path 22588" d="M8,0A8,8,0,1,1,0,8,8,8,0,0,1,8,0Z" transform="translate(0 0)" fill="#fff"/>
  <path id="Path_22581" data-name="Path 22581" d="M3.575,8.156.65,5.024A1.067,1.067,0,1,1,2.208,3.568L4.465,5.983,8.038,2.645a1.07,1.07,0,0,1,.1-.083L9.818.993a1.067,1.067,0,0,1,1.456,1.559L6.143,7.346,6.138,7.34,4.363,9l-.788-.843Z" transform="translate(1.927 3.746)" fill="#073bb2" fill-rule="evenodd"/>
</svg>