<svg xmlns="http://www.w3.org/2000/svg" xmlns:xlink="http://www.w3.org/1999/xlink" width="17.957" height="17.957" viewBox="0 0 17.957 17.957">
  <defs>
    <clipPath id="clip-path">
      <path id="Path_83429" data-name="Path 83429" d="M0,.5H17.957V18.457H0Z" fill="none" stroke="#1f3bb3" stroke-width="0.3"/>
    </clipPath>
  </defs>
  <g id="Group_162556" data-name="Group 162556" transform="translate(-56.521 -253.021)">
    <g id="archive_11805600" transform="translate(56.521 252.521)" clip-path="url(#clip-path)">
      <path id="Path_83422" data-name="Path 83422" d="M15.338,18.452H2.619A2.622,2.622,0,0,1,0,15.834v-8.6A2.6,2.6,0,0,1,.5,5.688L2.916,2.023A3.359,3.359,0,0,1,5.728.509h6.913A2.615,2.615,0,0,1,14.82,1.675l2.7,4.046a2.611,2.611,0,0,1,.44,1.452v8.66a2.622,2.622,0,0,1-2.619,2.619ZM5.728,1.257A2.615,2.615,0,0,0,3.54,2.435L1.122,6.108l-.011.016A1.853,1.853,0,0,0,.748,7.229v8.6A1.872,1.872,0,0,0,2.619,17.7h12.72a1.872,1.872,0,0,0,1.871-1.871V7.174a1.873,1.873,0,0,0-.314-1.038L14.2,2.09a1.868,1.868,0,0,0-1.556-.833Z" transform="translate(0 -0.002)" fill="#073BB2"/>
      <path id="Path_83422_-_Outline" data-name="Path 83422 - Outline" d="M15.3,18.527H2.581A2.734,2.734,0,0,1-.15,15.8v-8.6A2.71,2.71,0,0,1,.371,5.586L2.784,1.924A3.472,3.472,0,0,1,5.691.359H12.6a2.726,2.726,0,0,1,2.272,1.216l2.7,4.046a2.724,2.724,0,0,1,.459,1.515V15.8A2.734,2.734,0,0,1,15.3,18.527ZM5.691.583A3.248,3.248,0,0,0,2.972,2.047L.554,5.716a2.487,2.487,0,0,0-.48,1.475v8.6A2.509,2.509,0,0,0,2.581,18.3H15.3A2.509,2.509,0,0,0,17.807,15.8V7.136a2.5,2.5,0,0,0-.421-1.39L14.689,1.7A2.5,2.5,0,0,0,12.6.583Zm9.61,17.2H2.581A1.985,1.985,0,0,1,.6,15.8v-8.6A1.965,1.965,0,0,1,.982,6.019l.009-.013L3.408,2.336A2.728,2.728,0,0,1,5.69,1.107H12.6a1.979,1.979,0,0,1,1.65.883l2.7,4.046a1.984,1.984,0,0,1,.333,1.1V15.8A1.985,1.985,0,0,1,15.3,17.779ZM5.69,1.331A2.5,2.5,0,0,0,3.6,2.459L1.164,6.151A1.743,1.743,0,0,0,.823,7.191v8.6a1.76,1.76,0,0,0,1.758,1.758H15.3A1.76,1.76,0,0,0,17.059,15.8V7.136a1.76,1.76,0,0,0-.3-.976l-2.7-4.046A1.755,1.755,0,0,0,12.6,1.331Z" transform="translate(0.038 0.036)" fill="#073BB2"/>
      <path id="Path_83423" data-name="Path 83423" d="M11.723,16.726H6.486a2.622,2.622,0,0,1-2.619-2.619V10.366A1.11,1.11,0,0,0,2.758,9.257H.874a.374.374,0,0,1,0-.748H2.758a1.859,1.859,0,0,1,1.857,1.857v3.741a1.872,1.872,0,0,0,1.871,1.871h5.237a1.872,1.872,0,0,0,1.871-1.871V10.379a1.872,1.872,0,0,1,1.871-1.871h1.871a.374.374,0,1,1,0,.748H15.464a1.124,1.124,0,0,0-1.122,1.122v3.728A2.622,2.622,0,0,1,11.723,16.726Z" transform="translate(-0.126 -2.017)" fill="#073BB2"/>
      <path id="Path_83423_-_Outline" data-name="Path 83423 - Outline" d="M11.685,16.8H6.448a2.734,2.734,0,0,1-2.731-2.731V10.328a1,1,0,0,0-1-1H.836a.486.486,0,1,1,0-.973H2.72A1.972,1.972,0,0,1,4.69,10.328v3.741a1.76,1.76,0,0,0,1.758,1.758h5.237a1.76,1.76,0,0,0,1.758-1.758V10.342a1.985,1.985,0,0,1,1.983-1.983H17.3a.486.486,0,0,1,0,.973H15.426a1.011,1.011,0,0,0-1.01,1.01v3.728A2.734,2.734,0,0,1,11.685,16.8ZM.836,8.583a.262.262,0,1,0,0,.524H2.72a1.222,1.222,0,0,1,1.221,1.221v3.741a2.509,2.509,0,0,0,2.507,2.507h5.237a2.509,2.509,0,0,0,2.507-2.507V10.342a1.236,1.236,0,0,1,1.235-1.235H17.3a.262.262,0,0,0,0-.524H15.426a1.76,1.76,0,0,0-1.758,1.758v3.728a1.985,1.985,0,0,1-1.983,1.983H6.448a1.985,1.985,0,0,1-1.983-1.983V10.328A1.747,1.747,0,0,0,2.72,8.583Z" transform="translate(-0.088 -1.979)" fill="#073BB2"/>
      <path id="Path_83424" data-name="Path 83424" d="M14.356,9.239H6.874a.374.374,0,1,1,0-.748h7.482a.374.374,0,0,1,0,.748Z" transform="translate(-1.637 -2.012)" fill="#073BB2"/>
      <path id="Path_83424_-_Outline" data-name="Path 83424 - Outline" d="M14.318,9.313H6.836a.486.486,0,1,1,0-.973h7.482a.486.486,0,0,1,0,.973ZM6.836,8.565a.262.262,0,1,0,0,.524h7.482a.262.262,0,0,0,0-.524Z" transform="translate(-1.599 -1.974)" fill="#073BB2"/>
      <path id="Path_83425" data-name="Path 83425" d="M14.108,11.239H7.374a.374.374,0,0,1,0-.748h6.734a.374.374,0,1,1,0,.748Z" transform="translate(-1.763 -2.516)" fill="#073BB2"/>
      <path id="Path_83425_-_Outline" data-name="Path 83425 - Outline" d="M14.07,11.313H7.336a.486.486,0,1,1,0-.973H14.07a.486.486,0,1,1,0,.973Zm-6.734-.748a.262.262,0,0,0,0,.524H14.07a.262.262,0,1,0,0-.524Z" transform="translate(-1.725 -2.478)" fill="#073BB2"/>
      <path id="Path_83426" data-name="Path 83426" d="M14.108,13.239H7.374a.374.374,0,1,1,0-.748h6.734a.374.374,0,1,1,0,.748Z" transform="translate(-1.763 -3.019)" fill="#073BB2"/>
      <path id="Path_83426_-_Outline" data-name="Path 83426 - Outline" d="M14.07,13.313H7.336a.486.486,0,1,1,0-.973H14.07a.486.486,0,1,1,0,.973Zm-6.734-.748a.262.262,0,1,0,0,.524H14.07a.262.262,0,1,0,0-.524Z" transform="translate(-1.725 -2.981)" fill="#073BB2"/>
      <path id="Path_83427" data-name="Path 83427" d="M14.108,15.239H7.374a.374.374,0,0,1,0-.748h6.734a.374.374,0,1,1,0,.748Z" transform="translate(-1.763 -3.523)" fill="#073BB2"/>
      <path id="Path_83427_-_Outline" data-name="Path 83427 - Outline" d="M14.07,15.313H7.336a.486.486,0,1,1,0-.973H14.07a.486.486,0,1,1,0,.973Zm-6.734-.748a.262.262,0,0,0,0,.524H14.07a.262.262,0,1,0,0-.524Z" transform="translate(-1.725 -3.485)" fill="#073BB2"/>
      <path id="Path_83428" data-name="Path 83428" d="M13.86,17.239H7.874a.374.374,0,1,1,0-.748H13.86a.374.374,0,1,1,0,.748Z" transform="translate(-1.888 -4.026)" fill="#073BB2"/>
      <path id="Path_83428_-_Outline" data-name="Path 83428 - Outline" d="M13.822,17.313H7.836a.486.486,0,0,1,0-.973h5.986a.486.486,0,0,1,0,.973Zm-5.986-.748a.262.262,0,0,0,0,.524h5.986a.262.262,0,0,0,0-.524Z" transform="translate(-1.851 -3.989)" fill="#073BB2"/>
    </g>
  </g>
</svg>
