<svg xmlns="http://www.w3.org/2000/svg" width="21.534" height="23.906" viewBox="0 0 21.534 23.906">
  <g id="Group_25795" data-name="Group 25795" transform="translate(591.275 20729.902)">
    <path id="box_5652859_-_Outline" data-name="box_5652859 - Outline" d="M37.6,23.406a7.015,7.015,0,0,1-6.954-6.129H27.865a1.862,1.862,0,0,1-1.857-1.856V1.356A1.861,1.861,0,0,1,27.864-.5h4.685A1.851,1.851,0,0,1,34.222.567l.1.211H44.927a1.34,1.34,0,0,1,1.337,1.337V3.763a1.862,1.862,0,0,1,1.279,1.764V15.42a1.862,1.862,0,0,1-1.856,1.857h-1.13A7.014,7.014,0,0,1,37.6,23.406Zm0-12.3A5.294,5.294,0,1,0,42.9,16.4,5.3,5.3,0,0,0,37.6,11.1Zm6.96,4.458h1.123a.142.142,0,0,0,.141-.136v-9.9a.142.142,0,0,0-.141-.141H35.447a1.336,1.336,0,0,1-1.211-.77l-1.571-3.33a.12.12,0,0,0-.11-.071h-4.69a.141.141,0,0,0-.141.141V15.42a.142.142,0,0,0,.141.141h2.777a7.011,7.011,0,0,1,13.92,0ZM35.687,3.671h8.861V2.494H35.131Z" transform="translate(-617.283 -20729.402)" fill="#1f3bb3"/>
    <path id="file_11569211" d="M8.3,3.216,7.292,2.21A.713.713,0,0,0,6.784,2H4.677a.719.719,0,0,0-.719.719V7.03a.719.719,0,0,0,.719.719H7.79a.719.719,0,0,0,.719-.719V3.724A.714.714,0,0,0,8.3,3.216Zm-.339.339a.237.237,0,0,1,.061.122H7.072V2.667ZM7.79,7.269H4.677a.24.24,0,0,1-.24-.24V2.719a.24.24,0,0,1,.24-.24H6.593V4.156H8.03V7.03A.24.24,0,0,1,7.79,7.269Zm-3.353.958H6.353v.479H4.437A1.439,1.439,0,0,1,3,7.269V2.958h.479V7.269A.958.958,0,0,0,4.437,8.227Z" transform="translate(-585.254 -20718.354)" fill="#1f3bb3"/>
    <path id="file_11569211_-_Outline" data-name="file_11569211 - Outline" d="M6.787,1.875a.833.833,0,0,1,.594.246L8.387,3.127a.844.844,0,0,1,.247.6v3.3a.844.844,0,0,1-.844.844H4.677a.844.844,0,0,1-.844-.844V2.719a.844.844,0,0,1,.844-.844Zm1,5.748a.594.594,0,0,0,.594-.594V3.724A.593.593,0,0,0,8.21,3.3L7.2,2.3a.584.584,0,0,0-.417-.173V2l0,.125H4.677a.594.594,0,0,0-.594.594V7.03a.594.594,0,0,0,.594.594ZM4.677,2.354H6.718V4.031H8.155v3a.365.365,0,0,1-.365.365H4.677a.365.365,0,0,1-.365-.365V2.719A.365.365,0,0,1,4.677,2.354Zm1.791.25H4.677a.115.115,0,0,0-.115.115V7.03a.115.115,0,0,0,.115.115H7.79A.115.115,0,0,0,7.9,7.03V4.281H6.468Zm.479-.239,1.1,1.1a.363.363,0,0,1,.1.19l.025.146H6.947ZM7.78,3.552,7.2,2.968v.583ZM2.875,2.833H3.6V7.269a.834.834,0,0,0,.833.833H6.478v.729H4.437A1.566,1.566,0,0,1,2.875,7.269Zm.479.25H3.125V7.269A1.316,1.316,0,0,0,4.437,8.581H6.228V8.352H4.437A1.084,1.084,0,0,1,3.354,7.269Z" transform="translate(-585.254 -20718.354)" fill="#1f3bb1"/>
  </g>
</svg>
