<svg xmlns="http://www.w3.org/2000/svg" width="17.43" height="17.43" viewBox="0 0 17.43 17.43">
  <g id="arrow-right_1549454" transform="translate(17.43) rotate(90)">
    <path id="Path_83483" data-name="Path 83483" d="M8.715,0A8.715,8.715,0,1,0,17.43,8.715,8.715,8.715,0,0,0,8.715,0Zm0,16.558a7.843,7.843,0,1,1,7.843-7.843A7.843,7.843,0,0,1,8.715,16.558Zm0,0" fill="#063ab2"/>
    <path id="Path_83484" data-name="Path 83484" d="M171.384,128.107a.436.436,0,1,0-.574.656l3.111,2.722-3.111,2.722a.436.436,0,0,0,.574.656l3.486-3.05a.436.436,0,0,0,0-.656Zm0,0" transform="translate(-163.69 -122.771)" fill="#063ab2"/>
  </g>
</svg>
