<svg id="Group_19331" data-name="Group 19331" xmlns="http://www.w3.org/2000/svg" width="26.176" height="19.216" viewBox="0 0 26.176 19.216">
  <path id="Path_17711" data-name="Path 17711" d="M263.772,1090.856v-10.531h.575c.306,0,.43-.129.433-.438v-1.355c0-.455-.1-.558-.548-.558h-6.019v-1.636h1.009c.331,0,.451-.116.453-.44q0-.728,0-1.457c0-.327-.122-.453-.443-.454H245.786c-.32,0-.44.126-.442.454v1.355c0,.455.087.541.532.541h.932v1.636h-6.1c-.335,0-.467.12-.469.43q-.006.754,0,1.508a.363.363,0,0,0,.407.412h.6v10.524a4.181,4.181,0,0,0-.446,0,3.037,3.037,0,0,0-.7.114,1.235,1.235,0,0,0-.684.808v1.176a.5.5,0,0,0,.488.255q12.6-.005,25.2,0a.5.5,0,0,0,.488-.255v-1.176C265.3,1090.868,264.567,1090.776,263.772,1090.856Zm.271-12.147v.882h-5.831v-.882Zm-1.019,1.63v10.476h-4.807v-10.476Zm-16.952-4.732v-.888H258.94v.888Zm4.99,11.72c-.406,0-.5.1-.5.518v2.975h-3v-14.466h9.9v14.468h-2.984c0-.1-.012-.188-.012-.278v-2.734c0-.373-.112-.481-.49-.482Zm2.677.73v2.758h-2.45v-2.758Zm-12.775-8.463v-.883h5.84v.883Zm5.841.753v10.471H241.99v-10.471Zm18.062,12.121H240.139v-.426a.457.457,0,0,1,.488-.475h.256q11.6,0,23.2-.008c.792,0,.851.272.783.909Z" transform="translate(-239.419 -1073.987)" fill="#3952bb"/>
  <path id="Path_17712" data-name="Path 17712" d="M442.557,1222.761h1.328c.314,0,.441-.121.444-.425q.007-.792,0-1.583c0-.3-.123-.427-.417-.429q-1.354-.01-2.707,0c-.3,0-.416.134-.418.428q0,.779,0,1.558c0,.336.122.451.468.452C441.689,1222.763,442.123,1222.761,442.557,1222.761Z" transform="translate(-427.053 -1210.343)" fill="#3952bb"/>
  <path id="Path_17713" data-name="Path 17713" d="M377.1,1220.323q-1.353-.01-2.707,0c-.3,0-.418.132-.42.426q-.006.792,0,1.583c0,.306.128.426.439.429h2.681c.292,0,.419-.129.421-.422q.006-.792,0-1.583C377.515,1220.459,377.4,1220.325,377.1,1220.323Z" transform="translate(-364.795 -1210.343)" fill="#3952bb"/>
  <path id="Path_17714" data-name="Path 17714" d="M374.452,1124.406h2.6c.345,0,.467-.121.468-.456v-1.532c0-.326-.123-.45-.445-.451h-2.656c-.321,0-.44.125-.442.453v1.507C373.984,1124.285,374.1,1124.4,374.452,1124.406Z" transform="translate(-364.803 -1118.695)" fill="#3952bb"/>
  <path id="Path_17715" data-name="Path 17715" d="M441.249,1124.407h2.6c.361,0,.478-.117.48-.47v-1.507c0-.343-.12-.462-.458-.463h-2.63c-.337,0-.453.122-.454.467v1.507C440.793,1124.283,440.911,1124.4,441.249,1124.407Z" transform="translate(-427.057 -1118.697)" fill="#3952bb"/>
  <path id="Path_17716" data-name="Path 17716" d="M441.2,1173.688h2.706c.3,0,.414-.118.417-.42q.006-.791,0-1.583c0-.3-.12-.418-.419-.419q-1.353,0-2.706,0c-.3,0-.415.123-.417.421q0,.791,0,1.583C440.786,1173.568,440.9,1173.685,441.2,1173.688Z" transform="translate(-427.05 -1164.632)" fill="#3952bb"/>
  <path id="Path_17717" data-name="Path 17717" d="M377.1,1171.267h-2.707c-.3,0-.418.118-.42.417q-.007.791,0,1.583c0,.3.115.421.415.422q1.353,0,2.706,0c.3,0,.419-.12.421-.416q.006-.792,0-1.583C377.515,1171.391,377.4,1171.27,377.1,1171.267Z" transform="translate(-364.794 -1164.633)" fill="#3952bb"/>
  <path id="Path_17718" data-name="Path 17718" d="M292.963,1204.45h2.118c.27,0,.436-.146.429-.362s-.164-.349-.42-.351q-1.072-.007-2.144,0c-.267,0-.435.152-.43.367S292.688,1204.448,292.963,1204.45Z" transform="translate(-288.894 -1194.889)" fill="#3952bb"/>
  <path id="Path_17719" data-name="Path 17719" d="M292.951,1181.168h2.144c.255,0,.415-.14.42-.347s-.161-.365-.43-.366q-1.072,0-2.144,0a.372.372,0,0,0-.42.35C292.516,1181.02,292.685,1181.166,292.951,1181.168Z" transform="translate(-288.898 -1173.195)" fill="#3952bb"/>
  <path id="Path_17720" data-name="Path 17720" d="M292.931,1227.786c.357.005.714,0,1.072,0h1.072c.272,0,.437-.144.434-.359a.369.369,0,0,0-.417-.354q-1.084-.008-2.169,0a.368.368,0,0,0-.408.362C292.516,1227.643,292.675,1227.782,292.931,1227.786Z" transform="translate(-288.89 -1216.634)" fill="#3952bb"/>
  <path id="Path_17721" data-name="Path 17721" d="M292.93,1251.094c.348.005.7,0,1.046,0h1.1c.273,0,.437-.144.434-.359s-.16-.351-.418-.353q-1.084-.008-2.168,0a.367.367,0,0,0-.408.363C292.515,1250.953,292.672,1251.09,292.93,1251.094Z" transform="translate(-288.888 -1238.354)" fill="#3952bb"/>
  <path id="Path_17722" data-name="Path 17722" d="M295.066,1297.137h-2.092c-.294,0-.461.14-.454.363s.168.347.447.351h2.092c.29,0,.461-.146.456-.369S295.345,1297.138,295.066,1297.137Z" transform="translate(-288.896 -1281.923)" fill="#3952bb"/>
  <path id="Path_17723" data-name="Path 17723" d="M292.943,1274.422c.357.005.714,0,1.071,0h1.071c.262,0,.417-.134.426-.341s-.156-.368-.426-.37q-1.071-.009-2.142,0c-.271,0-.434.156-.425.37S292.679,1274.419,292.943,1274.422Z" transform="translate(-288.893 -1260.092)" fill="#3952bb"/>
  <path id="Path_17724" data-name="Path 17724" d="M530.777,1204.448h2.146c.256,0,.417-.136.425-.341a.38.38,0,0,0-.426-.372q-1.072-.006-2.144,0c-.266,0-.434.156-.425.372S530.519,1204.446,530.777,1204.448Z" transform="translate(-510.512 -1194.888)" fill="#3952bb"/>
  <path id="Path_17725" data-name="Path 17725" d="M530.773,1251.095c.357.005.714,0,1.071,0h1.1a.357.357,0,1,0,.009-.71q-1.1-.012-2.194,0a.367.367,0,0,0-.405.366C530.357,1250.956,530.515,1251.091,530.773,1251.095Z" transform="translate(-510.513 -1238.354)" fill="#3952bb"/>
  <path id="Path_17726" data-name="Path 17726" d="M530.793,1181.168h2.144c.254,0,.416-.14.421-.346s-.163-.366-.429-.368q-1.072,0-2.144,0a.37.37,0,0,0-.421.349C530.358,1181.011,530.525,1181.166,530.793,1181.168Z" transform="translate(-510.525 -1173.195)" fill="#3952bb"/>
  <path id="Path_17727" data-name="Path 17727" d="M532.945,1227.074q-1.084-.008-2.169,0a.367.367,0,0,0-.417.354c0,.209.161.355.434.358h2.144c.255,0,.415-.143.417-.349a.368.368,0,0,0-.409-.363Z" transform="translate(-510.52 -1216.635)" fill="#3952bb"/>
  <path id="Path_17728" data-name="Path 17728" d="M530.807,1297.849h2.114c.259-.005.415-.143.421-.351s-.157-.36-.43-.361q-1.059,0-2.117,0c-.279,0-.442.133-.447.346S530.516,1297.845,530.807,1297.849Z" transform="translate(-510.512 -1281.921)" fill="#3952bb"/>
  <path id="Path_17729" data-name="Path 17729" d="M530.76,1273.716a.365.365,0,0,0-.4.366c.006.208.162.341.422.345.357.005.714,0,1.071,0h1.1a.357.357,0,1,0,.007-.709Q531.857,1273.7,530.76,1273.716Z" transform="translate(-510.517 -1260.096)" fill="#3952bb"/>
</svg>
