<svg xmlns="http://www.w3.org/2000/svg" width="10.294" height="12.807" viewBox="0 0 10.294 12.807">
  <g id="copy" transform="translate(-0.295 0.1)">
    <g id="Group_22170" data-name="Group 22170" transform="translate(0.395)">
      <path id="Path_22549" data-name="Path 22549" d="M7.252,2.449H1.392a1,1,0,0,0-1,1v8.41a1,1,0,0,0,1,1h5.86a1,1,0,0,0,1-1V3.446A1,1,0,0,0,7.252,2.449Zm.3,9.4a.3.3,0,0,1-.3.3H1.389a.3.3,0,0,1-.3-.3V3.446a.3.3,0,0,1,.3-.3h5.86a.3.3,0,0,1,.3.3Z" transform="translate(-0.395 -0.244)" fill="#3d5cd7"/>
      <path id="Path_22549_-_Outline" data-name="Path 22549 - Outline" d="M1.392,2.349h5.86a1.1,1.1,0,0,1,1.1,1.1v8.41a1.1,1.1,0,0,1-1.1,1.1H1.392a1.1,1.1,0,0,1-1.1-1.1V3.445A1.1,1.1,0,0,1,1.392,2.349Zm5.86,10.4a.9.9,0,0,0,.9-.9V3.446a.9.9,0,0,0-.9-.9H1.392a.9.9,0,0,0-.9.9v8.41a.9.9,0,0,0,.9.9Zm-5.863-9.7h5.86a.4.4,0,0,1,.4.4v8.406a.4.4,0,0,1-.4.4H1.389a.4.4,0,0,1-.4-.4V3.446A.4.4,0,0,1,1.389,3.046Zm5.86,9a.2.2,0,0,0,.2-.2V3.446a.2.2,0,0,0-.2-.2H1.389a.2.2,0,0,0-.2.2v8.406a.2.2,0,0,0,.2.2Z" transform="translate(-0.395 -0.244)" fill="#3d5cd7"/>
      <path id="Path_22550" data-name="Path 22550" d="M9.74,0H3.88a1,1,0,0,0-1,1,.348.348,0,1,0,.7,0,.3.3,0,0,1,.3-.3h5.86a.3.3,0,0,1,.3.3v8.41a.3.3,0,0,1-.3.3.349.349,0,1,0,0,.7,1,1,0,0,0,1-1V1A1,1,0,0,0,9.74,0Z" transform="translate(-0.643)" fill="#3d5cd7"/>
      <path id="Path_22550_-_Outline" data-name="Path 22550 - Outline" d="M3.88-.1H9.74a1.1,1.1,0,0,1,1.1,1.1V9.406a1.1,1.1,0,0,1-1.1,1.1.449.449,0,1,1,0-.9.2.2,0,0,0,.2-.2V1a.2.2,0,0,0-.2-.2H3.881a.2.2,0,0,0-.2.2.448.448,0,1,1-.9,0A1.1,1.1,0,0,1,3.88-.1ZM9.741,10.3a.9.9,0,0,0,.9-.9V1a.9.9,0,0,0-.9-.9H3.88a.9.9,0,0,0-.9.9.248.248,0,1,0,.5,0,.4.4,0,0,1,.4-.4h5.86a.4.4,0,0,1,.4.4v8.41a.4.4,0,0,1-.4.4.247.247,0,0,0-.249.249A.25.25,0,0,0,9.741,10.3Z" transform="translate(-0.643)" fill="#3d5cd7"/>
    </g>
  </g>
</svg>
