<svg id="Group_2459" data-name="Group 2459" xmlns="http://www.w3.org/2000/svg" width="25.528" height="25.532" viewBox="0 0 25.528 25.532">
  <path id="Path_65" data-name="Path 65" d="M24.04,14.576V2.294a.748.748,0,0,0-.748-.748H19.5v-.8a.75.75,0,1,0-1.5,0v.8H15.013v-.8a.75.75,0,1,0-1.5,0v.8H10.524v-.8a.75.75,0,1,0-1.5,0v.8H6.035v-.8a.75.75,0,1,0-1.5,0v.8H.748A.748.748,0,0,0,0,2.294V21.8a.748.748,0,0,0,.748.748h12.46A6.731,6.731,0,1,0,24.04,14.576ZM4.539,3.042V3.79a.75.75,0,0,0,1.5,0V3.042H9.028V3.79a.75.75,0,0,0,1.5,0V3.042h2.993V3.79a.75.75,0,1,0,1.5,0V3.042h2.993V3.79a.75.75,0,1,0,1.5,0V3.042h3.042V6.035H1.5V3.042ZM1.5,21.048V7.531H22.544v5.676a6.725,6.725,0,0,0-9.39,1.936.744.744,0,0,0-.336-.08h-1.5a.75.75,0,0,0,0,1.5h1.133a6.676,6.676,0,0,0-.343,1.5h-.79a.75.75,0,0,0,0,1.5h.79a6.665,6.665,0,0,0,.343,1.5ZM18.8,24.04A5.237,5.237,0,1,1,24.04,18.8,5.237,5.237,0,0,1,18.8,24.04Z" transform="translate(0 0.004)" fill="#3952bb"/>
  <path id="Path_66" data-name="Path 66" d="M365.741,304.993H363.5v-2.245a.75.75,0,0,0-1.5,0v2.993a.748.748,0,0,0,.748.748h2.993a.75.75,0,0,0,0-1.5Z" transform="translate(-343.945 -286.933)" fill="#3952bb"/>
</svg>
