<svg id="detour_11636835" xmlns="http://www.w3.org/2000/svg" width="28.838" height="17.793" viewBox="0 0 28.838 17.793">
  <path id="Path_83326" data-name="Path 83326" d="M208.836,84.62h-5.074a.375.375,0,0,1-.375-.375V78.739a9.9,9.9,0,0,1,9.895-9.895h.36V67.2a.375.375,0,0,1,.593-.3l6.325,4.554a.374.374,0,0,1,0,.608l-6.325,4.554a.375.375,0,0,1-.593-.3c0-.493,0-1.207,0-1.642h-.36a4.076,4.076,0,0,0-4.072,4.072v5.507A.375.375,0,0,1,208.836,84.62Zm-4.7-.749h4.325V78.739a4.826,4.826,0,0,1,4.821-4.821h.735a.374.374,0,0,1,.374.382c0,.029,0,.667,0,1.279l5.31-3.823-5.31-3.823c0,.6,0,1.215,0,1.278a.374.374,0,0,1-.374.383h-.735a9.154,9.154,0,0,0-9.146,9.146Z" transform="translate(-191.878 -66.827)"/>
  <path id="Path_83327" data-name="Path 83327" d="M30.884,79.112a.375.375,0,0,1-.375-.375,4.076,4.076,0,0,0-4.072-4.071h-.363v1.643a.375.375,0,0,1-.593.3l-6.325-4.554a.375.375,0,0,1,0-.608L25.481,66.9a.375.375,0,0,1,.593.3v1.642h.363A9.92,9.92,0,0,1,33.7,72.021a.374.374,0,1,1-.55.509,9.17,9.17,0,0,0-6.709-2.937H25.7a.375.375,0,0,1-.375-.375V67.933l-5.31,3.823,5.31,3.823V74.292a.375.375,0,0,1,.406-.375h.706a4.826,4.826,0,0,1,4.821,4.82A.375.375,0,0,1,30.884,79.112Z" transform="translate(-19 -66.827)"/>
</svg>
