<svg xmlns="http://www.w3.org/2000/svg" width="9.163" height="13.217" viewBox="0 0 9.163 13.217">
  <g id="delete" transform="translate(-3.146 -1)">
    <path id="Path_22540" data-name="Path 22540" d="M8.377,8.552A.512.512,0,0,1,8.835,8a.512.512,0,0,1,.459.552v3.3a.509.509,0,0,1-.459.549.509.509,0,0,1-.458-.549Zm-1.833,0A.512.512,0,0,1,7,8a.513.513,0,0,1,.459.552v3.3A.51.51,0,0,1,7,12.406a.509.509,0,0,1-.457-.549v-3.3Z" transform="translate(-0.19 -0.391)" fill="#3d5cd7"/>
    <path id="Path_22541" data-name="Path 22541" d="M11.853,3.2H10.021V2.654A1.538,1.538,0,0,0,8.645,1H6.812A1.535,1.535,0,0,0,5.438,2.654V3.2H3.6a.511.511,0,0,0-.457.552.51.51,0,0,0,.457.549h8.25a.509.509,0,0,0,.457-.549A.509.509,0,0,0,11.853,3.2Zm-5.5,0V2.654A.511.511,0,0,1,6.811,2.1H8.644a.512.512,0,0,1,.459.551V3.2Z" transform="translate(0 0)" fill="#3d5cd7"/>
    <path id="Path_22542" data-name="Path 22542" d="M10.991,5.668H4.576a.51.51,0,0,0-.459.55v7.71a.509.509,0,0,0,.459.55h6.415a.509.509,0,0,0,.457-.55V6.218A.509.509,0,0,0,10.991,5.668Zm-.459,7.71h-5.5V6.769h5.5Z" transform="translate(-0.054 -0.261)" fill="#3d5cd7"/>
    <path id="Path_22543" data-name="Path 22543" d="M8.944,13.406a.508.508,0,0,0,.459-.549v-3.3A.512.512,0,0,0,8.944,9a.512.512,0,0,0-.458.552v3.3A.509.509,0,0,0,8.944,13.406Z" transform="translate(-0.298 -0.447)" fill="#3d5cd7"/>
  </g>
</svg>
