<svg xmlns="http://www.w3.org/2000/svg" width="17.095" height="22.773" viewBox="0 0 17.095 22.773">
  <g id="doc" transform="translate(-234.51)">
    <path id="Path_22660" data-name="Path 22660" d="M236.343,0a1.427,1.427,0,0,0-1.423,1.423V21.349a1.427,1.427,0,0,0,1.423,1.423h14.233A1.428,1.428,0,0,0,252,21.349V5.693L246.306,0Z" transform="translate(-0.394)" fill="#e2e5e7"/>
    <path id="Path_22661" data-name="Path 22661" d="M533.983,5.693h4.27L532.56,0V4.27A1.427,1.427,0,0,0,533.983,5.693Z" transform="translate(-286.648)" fill="#b0b7bd"/>
    <path id="Path_22662" data-name="Path 22662" d="M574.035,153.09l-4.27-4.27h4.27Z" transform="translate(-322.43 -143.127)" fill="#cad1d8"/>
    <path id="Path_22663" data-name="Path 22663" d="M251.589,238.864a.714.714,0,0,1-.712.712H235.222a.714.714,0,0,1-.712-.712v-7.116a.714.714,0,0,1,.712-.712h15.656a.714.714,0,0,1,.712.712v7.116Z" transform="translate(0 -222.198)" fill="#0740a5"/>
    <g id="Group_22188" data-name="Group 22188" transform="translate(236.811 11.163)">
      <path id="Path_22664" data-name="Path 22664" d="M295.063,299.47a.357.357,0,0,1-.393-.353v-3.232a.387.387,0,0,1,.393-.353h1.3c2.6,0,2.543,3.938.05,3.938h-1.353Zm.359-3.244v2.549h.944c1.536,0,1.6-2.549,0-2.549Z" transform="translate(-294.67 -295.39)" fill="#fff"/>
      <path id="Path_22665" data-name="Path 22665" d="M408.45,295.949A1.987,1.987,0,0,1,406.3,293.9a2.091,2.091,0,0,1,4.182,0A1.984,1.984,0,0,1,408.45,295.949Zm-.063-3.4a1.349,1.349,0,1,0,1.354,1.349A1.3,1.3,0,0,0,408.387,292.552Z" transform="translate(-402.033 -291.812)" fill="#fff"/>
      <path id="Path_22666" data-name="Path 22666" d="M533.136,294.9a1.915,1.915,0,0,1,2-2.042,1.86,1.86,0,0,1,1.3.507.369.369,0,1,1-.507.534.982.982,0,0,0-.8-.312,1.23,1.23,0,0,0-1.3,1.314,1.251,1.251,0,0,0,1.3,1.354,1.329,1.329,0,0,0,.888-.364.382.382,0,0,1,.523.068.392.392,0,0,1-.063.534,2.065,2.065,0,0,1-3.346-1.593Z" transform="translate(-524.013 -292.814)" fill="#fff"/>
    </g>
    <path id="Path_22667" data-name="Path 22667" d="M322.441,436.377H308.92v.712h13.521a.714.714,0,0,0,.712-.712v-.712A.714.714,0,0,1,322.441,436.377Z" transform="translate(-71.563 -418.998)" fill="#cad1d8"/>
  </g>
</svg>
