<svg xmlns="http://www.w3.org/2000/svg" width="24" height="16.512" viewBox="0 0 24 16.512">
  <g id="export" transform="translate(0 -0.244)">
    <path id="Path_22552" data-name="Path 22552" d="M22.577,4.472l-.447-.316c-.444-.317-.892-.633-1.342-.944-.476-.327-.951-.673-1.41-1.01-.53-.39-1.082-.791-1.644-1.17-.071-.05-.148-.109-.229-.166A2.424,2.424,0,0,0,15.892.251a1.815,1.815,0,0,0-1.533,1.691V3.87h-.078C12.4,3.87,3.04,4.348,3.04,13.734a.569.569,0,0,0,.475.545c.03,0,.071.01.1.01a.562.562,0,0,0,.526-.375c.07-.2,1.723-4.866,9.135-4.866.375,0,.805.015,1.08.035v1.8a1.9,1.9,0,0,0,1.021,1.529,1.437,1.437,0,0,0,.673.173,2.322,2.322,0,0,0,1.361-.615,2.867,2.867,0,0,1,.278-.2c.326-.211.656-.441.973-.658.156-.113.316-.229.477-.334.867-.6,1.739-1.221,2.584-1.824l.239-.173c.106-.078.222-.155.33-.232s.183-.128.257-.181C23.2,7.945,24,7.419,24,6.412,24,5.441,23.336,4.99,22.577,4.472Z" fill="#366ae1"/>
    <path id="Path_22553" data-name="Path 22553" d="M17.033,16.756a2.2,2.2,0,0,0,2.3-2.357V13a.551.551,0,1,0-1.1,0v1.4a1.1,1.1,0,0,1-1.192,1.254H2.7a1.448,1.448,0,0,1-1.6-1.254V5.255A1.639,1.639,0,0,1,2.7,3.777H8.15a.553.553,0,0,0,0-1.105H2.7A2.743,2.743,0,0,0,0,5.255V14.4a2.562,2.562,0,0,0,2.7,2.358Z" fill="#366ae1"/>
  </g>
</svg>
