<svg xmlns="http://www.w3.org/2000/svg" width="15.651" height="14.998" viewBox="0 0 15.651 14.998">
  <path id="Union_2" data-name="Union 2" d="M2700.442,281.5a1.172,1.172,0,0,1-.543-.134l-3.573-1.878-3.573,1.878a1.176,1.176,0,0,1-.544.134,1.157,1.157,0,0,1-.685-.223,1.171,1.171,0,0,1-.463-1.141l.682-3.977-2.89-2.815a1.174,1.174,0,0,1-.295-1.195,1.16,1.16,0,0,1,.94-.794l4-.584,1.787-3.62a1.172,1.172,0,0,1,1.045-.649,1.159,1.159,0,0,1,1.045.649l1.787,3.621,4,.584a1.172,1.172,0,0,1,.94.8,1.159,1.159,0,0,1-.3,1.193l-2.891,2.816.682,3.977a1.171,1.171,0,0,1-.465,1.141A1.154,1.154,0,0,1,2700.442,281.5Zm-4.116-3.077a.5.5,0,0,1,.233.057l3.806,2a.168.168,0,0,0,.078.019.162.162,0,0,0,.1-.031.166.166,0,0,0,.067-.162l-.727-4.237a.5.5,0,0,1,.144-.443l3.079-3a.166.166,0,0,0-.092-.283l-4.255-.622a.5.5,0,0,1-.376-.273l-1.9-3.856a.166.166,0,0,0-.3,0l-1.9,3.856a.5.5,0,0,1-.376.273l-4.255.622a.166.166,0,0,0-.092.283l3.079,3a.5.5,0,0,1,.144.443l-.726,4.236a.165.165,0,0,0,.163.194.172.172,0,0,0,.079-.02l3.8-2A.5.5,0,0,1,2696.325,278.421Z" transform="translate(-2688.501 -266.5)" fill="#bababa"/>
</svg>