<svg id="Group_162496" data-name="Group 162496" xmlns="http://www.w3.org/2000/svg" width="22.832" height="21.046" viewBox="0 0 22.832 21.046">
  <g id="Group_162496-2" data-name="Group 162496">
    <path id="Path_83416" data-name="Path 83416" d="M27.771,5.788a.7.7,0,0,0-.628-.4H5.693a.693.693,0,0,0-.534,1.133l8.245,10v9.22a.7.7,0,0,0,1,.621l4.631-2.293a.7.7,0,0,0,.384-.619l.009-6.926,8.245-10a.714.714,0,0,0,.1-.74ZM18.2,15.838a.693.693,0,0,0-.155.436l-.009,6.745-3.249,1.61V16.276a.705.705,0,0,0-.158-.438L7.159,6.777H25.67Z" transform="translate(-5.001 -5.391)" fill="#0d0d0d"/>
  </g>
</svg>
