<svg id="Group_22269" data-name="Group 22269" xmlns="http://www.w3.org/2000/svg" xmlns:xlink="http://www.w3.org/1999/xlink" width="3859.344" height="1214.67" viewBox="0 0 3859.344 1214.67">
  <defs>
    <clipPath id="clip-path">
      <rect id="Rectangle_916" data-name="Rectangle 916" width="3859.344" height="1214.67" fill="none"/>
    </clipPath>
  </defs>
  <g id="Group_22266" data-name="Group 22266">
    <g id="Group_22265" data-name="Group 22265" clip-path="url(#clip-path)">
      <path id="Path_22582" data-name="Path 22582" d="M1226.945,647.542c0,5.11-1.46,6.57-5.84,6.57h-76.649c-4.381,0-5.841-2.19-5.841-6.57v-467.2c0-5.11,2.19-5.841,5.841-5.841H1221.1c4.38,0,5.84,1.46,5.84,5.841Z" fill="#1f1a17"/>
      <path id="Path_22583" data-name="Path 22583" d="M1335.716,181.076c0-3.65,1.46-5.84,5.109-5.84,27.741-.731,81.76-2.191,135.05-2.191,141.619,0,194.179,78.84,194.179,159.139,0,116.07-89.79,166.439-200.019,166.439h-45.99v149.65c0,3.65-1.46,5.84-5.84,5.84h-76.649c-3.651,0-5.84-1.46-5.84-5.11Zm88.329,239.438c12.41.73,21.9.73,45.99.73,61.32,0,113.149-20.44,113.149-86.87,0-53.289-37.959-84.679-105.119-84.679-25.55,0-45.99.73-54.02,1.46Z" fill="#1f1a17"/>
      <path id="Path_22584" data-name="Path 22584" d="M1864.984,527.823l-40.15,120.449c-1.459,4.38-3.649,5.84-8.03,5.84h-73c-4.379,0-5.839-2.19-5.11-7.3l150.377-427.778c2.921-7.3,5.112-14.6,6.572-39.419,0-2.92,1.459-5.111,4.38-5.111h101.469c3.65,0,4.38.731,5.11,4.381l168.628,468.657c.73,4.38,0,6.57-4.379,6.57h-81.759c-3.65,0-5.842-1.46-7.3-4.38l-42.339-121.909Zm151.11-79.57c-15.33-48.18-49.641-149.649-64.24-200.749h-.73c-11.68,48.91-40.88,134.319-62.78,200.749Z" fill="#1f1a17"/>
      <path id="Path_22585" data-name="Path 22585" d="M2516.874,573.813c0,37.959,2.92,59.859,4.38,75.189.73,3.65-1.46,5.11-5.84,5.11h-67.159c-5.11,0-6.57-1.46-7.3-4.38a158.294,158.294,0,0,1-5.109-25.549c-31.39,29.2-68.62,37.229-101.47,37.229-69.35,0-122.64-37.229-122.64-139.429V299.334c0-4.379,1.461-5.109,5.841-5.109h76.65c4.379,0,5.109,1.46,5.109,5.109V511.763c0,45.26,19.71,73,63.51,73,27.74,0,48.179-9.49,66.429-26.28V299.334c0-3.649,1.46-5.109,5.84-5.109h76.65c4.38,0,5.11,1.46,5.11,5.109Z" fill="#1f1a17"/>
      <path id="Path_22586" data-name="Path 22586" d="M2787.705,642.433c0,4.38-.73,7.3-4.38,8.76-19.71,7.3-37.96,10.219-62.05,10.219-59.86,0-95.63-29.2-95.63-101.469V367.954h-45.989c-3.65-.729-5.11-2.189-5.11-6.57V300.065c0-4.38,1.46-5.84,5.84-5.84h45.99c.729-25.55,3.649-71.54,7.3-89.79.729-3.649,2.189-5.84,5.84-6.569l73.729-10.221c3.65-.73,5.11,0,5.11,3.65-2.19,24.09-3.65,67.16-3.65,102.93h70.81c3.65,0,5.11,1.46,5.11,5.11v63.509c0,3.651-1.46,5.11-5.11,5.11h-71.539V540.963c0,32.12,10.219,47.45,41.609,47.45a123.725,123.725,0,0,0,27.74-2.92c2.19-.73,4.38,0,4.38,4.38Z" fill="#1f1a17"/>
      <path id="Path_22587" data-name="Path 22587" d="M2940.275,649c0,3.65-.73,5.11-5.11,5.11h-77.379c-4.38,0-5.841-2.19-5.841-5.84V139.465c0-2.919,1.461-5.11,5.841-5.11h77.379c4.38,0,5.11,1.46,5.11,5.11V320.5c27.739-20.44,58.4-33.58,100.01-33.58,55.479,0,121.909,27.74,121.909,144.539V647.542c0,5.11-2.19,6.57-5.84,6.57h-75.92q-6.57,0-6.57-6.57V440.223c0-48.909-21.17-76.649-63.51-76.649-27.01,0-51.1,8.76-70.079,25.55Z" fill="#1f1a17"/>
      <path id="Path_22588" data-name="Path 22588" d="M3583.4,472.343c0,113.149-72.269,189.069-175.2,189.069-121.909,0-175.929-94.17-175.929-186.879,0-103.659,67.889-187.609,177.389-187.609,112.419,0,173.738,85.41,173.738,185.419m-262.068.73c0,67.16,32.851,113.879,88.33,113.879,45.26,0,83.949-37.229,83.949-112.419,0-60.589-26.279-113.879-88.329-113.879-48.91,0-83.95,43.069-83.95,112.419" fill="#1f1a17"/>
      <path id="Path_22589" data-name="Path 22589" d="M3721.375,294.225c4.381,0,6.57,1.46,8.03,5.84,3.651,9.49,6.571,27.74,7.3,43.8,24.82-30.661,66.43-56.94,116.8-56.94,4.38,0,5.84.73,5.84,5.11v77.379c0,3.65-1.46,5.11-6.571,5.11-51.829-1.46-94.9,16.79-111.689,38.69V648.273c0,4.38-2.189,5.84-6.569,5.84H3658.6c-5.11,0-6.571-2.19-6.571-5.84V396.424c0-31.389-.729-73.729-3.649-97.819,0-3.65.729-4.38,4.38-4.38Z" fill="#1f1a17"/>
    </g>
  </g>
  <text id="BY_DOLCERA" data-name="BY DOLCERA" transform="translate(1460.511 1069.243)" fill="#063ab2" font-size="278" font-family="AdobeClean-Bold, Adobe Clean" font-weight="700"><tspan x="0" y="0" letter-spacing="0.193em">B</tspan><tspan y="0" letter-spacing="0.2em">Y </tspan><tspan y="0" letter-spacing="0.209em">D</tspan><tspan y="0" letter-spacing="0.2em">O</tspan><tspan y="0" letter-spacing="0.189em">L</tspan><tspan y="0" letter-spacing="0.2em">C</tspan><tspan y="0" letter-spacing="0.195em">E</tspan><tspan y="0" letter-spacing="0.2em">R</tspan><tspan y="0">A</tspan></text>
  <g id="Group_22268" data-name="Group 22268">
    <g id="Group_22267" data-name="Group 22267" clip-path="url(#clip-path)">
      <path id="Path_22590" data-name="Path 22590" d="M475.257,698.732V1214.67C630.855,993.487,935.991,749.955,935.991,468c0-257.734-210.225-468-468-468S0,210.263,0,468C0,636.1,86.411,769.471,212.013,852.059V327.775c33.426-79.235,81.1-90.759,99.65-92.106h7.812V906.806q21.123,8.044,42.974,14.477V235.351h64.687c25.107,0,49.241-.939,73.913,2.594C613.12,254.094,699.686,350.881,699.686,467.2c0,125.158-100.154,227.672-224.429,231.529" fill="#063ab2"/>
    </g>
  </g>
</svg>
