<svg id="Group_22274" data-name="Group 22274" xmlns="http://www.w3.org/2000/svg" xmlns:xlink="http://www.w3.org/1999/xlink" width="180.59" height="47.326" viewBox="0 0 180.59 47.326">
  <defs>
    <clipPath id="clip-path">
      <rect id="Rectangle_920" data-name="Rectangle 920" width="180.59" height="47.326" fill="none"/>
    </clipPath>
  </defs>
  <g id="Group_22273" data-name="Group 22273" clip-path="url(#clip-path)">
    <path id="Path_22600" data-name="Path 22600" d="M1127.394,287.776c0,.257-.073.33-.294.33h-3.855c-.22,0-.294-.11-.294-.33v-23.5c0-.257.11-.294.294-.294h3.855c.22,0,.294.073.294.294Z" transform="translate(-1079.198 -253.7)" fill="#1f1a17"/>
    <path id="Path_22601" data-name="Path 22601" d="M1377.378,262.5c0-.184.073-.294.257-.294,1.4-.037,4.112-.11,6.792-.11,7.123,0,9.766,3.965,9.766,8,0,5.838-4.516,8.371-10.06,8.371h-2.313V286c0,.184-.073.294-.294.294h-3.855c-.184,0-.294-.073-.294-.257Zm4.443,12.042c.624.037,1.1.037,2.313.037,3.084,0,5.691-1.028,5.691-4.369,0-2.68-1.909-4.259-5.287-4.259-1.285,0-2.313.037-2.717.073Z" transform="translate(-1323.712 -251.889)" fill="#1f1a17"/>
    <path id="Path_22602" data-name="Path 22602" d="M1903.695,281.756l-2.019,6.058a.364.364,0,0,1-.4.294H1897.6c-.22,0-.294-.11-.257-.367l7.563-21.515a5.611,5.611,0,0,0,.331-1.983c0-.147.073-.257.22-.257h5.1c.183,0,.22.037.257.22l8.481,23.571c.037.22,0,.33-.22.33h-4.112a.369.369,0,0,1-.367-.22l-2.129-6.131Zm7.6-4c-.771-2.423-2.5-7.527-3.231-10.1h-.037c-.587,2.46-2.056,6.756-3.157,10.1Z" transform="translate(-1823.41 -253.701)" fill="#1f1a17"/>
    <path id="Path_22603" data-name="Path 22603" d="M2523.536,432.588a32.587,32.587,0,0,0,.22,3.782c.037.184-.073.257-.294.257h-3.378c-.257,0-.33-.073-.367-.22a7.958,7.958,0,0,1-.257-1.285,7.255,7.255,0,0,1-5.1,1.872c-3.488,0-6.168-1.872-6.168-7.013v-11.2c0-.22.073-.257.294-.257h3.855c.22,0,.257.073.257.257v10.684c0,2.276.991,3.671,3.194,3.671a4.655,4.655,0,0,0,3.341-1.322V418.783c0-.184.073-.257.294-.257h3.855c.22,0,.257.073.257.257Z" transform="translate(-2410.464 -402.219)" fill="#1f1a17"/>
    <path id="Path_22604" data-name="Path 22604" d="M2987.245,303.505c0,.22-.037.367-.22.441a8.44,8.44,0,0,1-3.121.514c-3.01,0-4.81-1.469-4.81-5.1V289.7h-2.313c-.184-.037-.257-.11-.257-.33v-3.084c0-.22.073-.294.294-.294h2.313a38.728,38.728,0,0,1,.367-4.516.353.353,0,0,1,.294-.33l3.708-.514c.184-.037.257,0,.257.184-.11,1.212-.184,3.378-.184,5.177h3.561c.184,0,.257.073.257.257v3.194c0,.184-.073.257-.257.257h-3.6v8.7c0,1.615.514,2.386,2.093,2.386a6.225,6.225,0,0,0,1.4-.147c.11-.037.22,0,.22.22Z" transform="translate(-2860.552 -269.686)" fill="#1f1a17"/>
    <path id="Path_22605" data-name="Path 22605" d="M3339.049,238.043c0,.184-.037.257-.257.257H3334.9c-.22,0-.294-.11-.294-.294v-25.59c0-.147.074-.257.294-.257h3.892c.22,0,.257.073.257.257v9.105a8.051,8.051,0,0,1,5.03-1.689c2.79,0,6.131,1.4,6.131,7.27v10.868c0,.257-.11.33-.294.33H3346.1a.292.292,0,0,1-.331-.33V227.542c0-2.46-1.065-3.855-3.194-3.855a5.209,5.209,0,0,0-3.525,1.285Z" transform="translate(-3204.682 -203.893)" fill="#1f1a17"/>
    <path id="Path_22606" data-name="Path 22606" d="M3843.217,418.428c0,5.691-3.635,9.509-8.812,9.509-6.131,0-8.848-4.736-8.848-9.4,0-5.214,3.415-9.436,8.922-9.436,5.654,0,8.738,4.3,8.738,9.326m-13.181.037c0,3.378,1.652,5.727,4.443,5.727,2.276,0,4.222-1.872,4.222-5.654,0-3.047-1.322-5.728-4.443-5.728-2.46,0-4.222,2.166-4.222,5.654" transform="translate(-3676.505 -393.162)" fill="#1f1a17"/>
    <path id="Path_22607" data-name="Path 22607" d="M4366.352,409.469a.364.364,0,0,1,.4.294,8.3,8.3,0,0,1,.367,2.2A7.65,7.65,0,0,1,4373,409.1c.22,0,.294.037.294.257v3.892c0,.184-.074.257-.331.257-2.607-.073-4.773.844-5.618,1.946v11.822c0,.22-.11.294-.33.294h-3.818c-.257,0-.331-.11-.331-.294V414.609c0-1.579-.037-3.708-.184-4.92,0-.184.037-.22.22-.22Z" transform="translate(-4192.7 -393.162)" fill="#1f1a17"/>
    <path id="Path_22608" data-name="Path 22608" d="M18.517,27.224v20.1C24.58,38.708,36.468,29.22,36.468,18.234A18.234,18.234,0,1,0,0,18.234,17.618,17.618,0,0,0,8.261,33.2V12.771c1.3-3.087,3.16-3.536,3.883-3.589h.3V35.331q.823.313,1.674.564V9.17h2.52a20.059,20.059,0,0,1,2.88.1,9.025,9.025,0,0,1-1,17.953" transform="translate(0)" fill="#063ab2"/>
  </g>
</svg>
