<svg xmlns="http://www.w3.org/2000/svg" width="37.44" height="24.069" viewBox="0 0 37.44 24.069">
  <g id="list_54631" transform="translate(0 -109.286)">
    <g id="_x33__11_" transform="translate(0 109.286)">
      <g id="Group_162529" data-name="Group 162529">
        <path id="Path_83419" data-name="Path 83419" d="M1.337,119.983a1.337,1.337,0,1,0,1.337,1.337A1.338,1.338,0,0,0,1.337,119.983Zm0,10.7a1.337,1.337,0,1,0,1.337,1.337A1.338,1.338,0,0,0,1.337,130.681ZM9.36,111.96H36.1a1.337,1.337,0,1,0,0-2.674H9.36a1.337,1.337,0,0,0,0,2.674Zm-8.023-2.674a1.337,1.337,0,1,0,1.337,1.337A1.338,1.338,0,0,0,1.337,109.286ZM36.1,130.681H9.36a1.337,1.337,0,1,0,0,2.674H36.1a1.337,1.337,0,1,0,0-2.674Zm0-10.7H9.36a1.337,1.337,0,0,0,0,2.674H36.1a1.337,1.337,0,1,0,0-2.674Z" transform="translate(0 -109.286)" fill="#d0d6e2"/>
      </g>
    </g>
  </g>
</svg>
