<?xml version="1.0" encoding="utf-8"?>
<!-- Generator: Adobe Illustrator 16.0.0, SVG Export Plug-In . SVG Version: 6.00 Build 0)  -->
<!DOCTYPE svg PUBLIC "-//W3C//DTD SVG 1.1//EN" "http://www.w3.org/Graphics/SVG/1.1/DTD/svg11.dtd">
<svg version="1.1" id="Layer_1" xmlns="http://www.w3.org/2000/svg" xmlns:xlink="http://www.w3.org/1999/xlink" x="0px" y="0px"
	 width="32px" height="32px" viewBox="0 0 32 32" enable-background="new 0 0 32 32" xml:space="preserve">
<g>
	<path d="M22.894,27.979H2.452V4.021h20.441c0.401,0,0.727-0.325,0.727-0.726s-0.325-0.726-0.727-0.726H1.726
		C1.325,2.569,1,2.895,1,3.295v25.409c0,0.401,0.325,0.727,0.726,0.727h21.168c0.401,0,0.727-0.325,0.727-0.727
		C23.62,28.305,23.295,27.979,22.894,27.979z"/>
	<path d="M30.787,15.041l-4.477-4.478c-0.283-0.283-0.742-0.283-1.026,0c-0.284,0.284-0.284,0.743,0,1.027l3.237,3.237H14.955
		c-0.401,0-0.726,0.325-0.726,0.726s0.324,0.726,0.726,0.726h13.566l-3.237,3.237c-0.284,0.284-0.284,0.743,0,1.027
		c0.142,0.141,0.328,0.212,0.514,0.212s0.371-0.071,0.513-0.212l4.477-4.477C31.071,15.783,31.071,15.323,30.787,15.041z"/>
</g>
</svg>
