<svg xmlns="http://www.w3.org/2000/svg" width="31.508" height="31.508" viewBox="0 0 31.508 31.508">
  <g id="menu_8867517" transform="translate(0.75 0.75)" style="isolation: isolate">
    <g id="Group_22285" data-name="Group 22285" transform="translate(0 0)">
      <path id="Path_22922" data-name="Path 22922" d="M13.337,3.334V10A3.344,3.344,0,0,1,10,13.337H3.334A3.344,3.344,0,0,1,0,10V3.334A3.344,3.344,0,0,1,3.334,0H10a3.344,3.344,0,0,1,3.334,3.334Z" transform="translate(0 0)" fill="none" stroke="#1f3bb3" stroke-width="1.5"/>
      <path id="Path_22923" data-name="Path 22923" d="M297.781,3.334V10a3.344,3.344,0,0,1-3.334,3.334h-6.668A3.344,3.344,0,0,1,284.444,10V3.334A3.344,3.344,0,0,1,287.778,0h6.668a3.344,3.344,0,0,1,3.334,3.334Z" transform="translate(-267.773 0)" fill="none" stroke="#1f3bb3" stroke-width="1.5"/>
    </g>
    <g id="Group_22286" data-name="Group 22286" transform="translate(0 16.671)">
      <path id="Path_22924" data-name="Path 22924" d="M13.337,287.778v6.668A3.344,3.344,0,0,1,10,297.781H3.334A3.344,3.344,0,0,1,0,294.447v-6.668a3.344,3.344,0,0,1,3.334-3.334H10A3.344,3.344,0,0,1,13.337,287.778Z" transform="translate(0 -284.444)" fill="none" stroke="#1f3bb3" stroke-width="1.5"/>
      <path id="Path_22925" data-name="Path 22925" d="M297.781,287.778v6.668a3.344,3.344,0,0,1-3.334,3.334h-6.668a3.344,3.344,0,0,1-3.334-3.334v-6.668a3.344,3.344,0,0,1,3.334-3.334h6.668A3.344,3.344,0,0,1,297.781,287.778Z" transform="translate(-267.773 -284.444)" fill="none" stroke="#1f3bb3" stroke-width="1.5"/>
    </g>
  </g>
</svg>
