<svg xmlns="http://www.w3.org/2000/svg" width="11.5" height="9.5" viewBox="0 0 11.5 9.5">
  <g id="Group_2560" data-name="Group 2560" transform="translate(-1845.75 -268.75)">
    <path id="Line_30" data-name="Line 30" d="M10,.75H0A.75.75,0,0,1-.75,0,.75.75,0,0,1,0-.75H10a.75.75,0,0,1,.75.75A.75.75,0,0,1,10,.75Z" transform="translate(1846.5 269.5)" fill="#063ab2"/>
    <path id="Line_31" data-name="Line 31" d="M10,.75H0A.75.75,0,0,1-.75,0,.75.75,0,0,1,0-.75H10a.75.75,0,0,1,.75.75A.75.75,0,0,1,10,.75Z" transform="translate(1846.5 273.5)" fill="#063ab2"/>
    <path id="Line_32" data-name="Line 32" d="M10,.75H0A.75.75,0,0,1-.75,0,.75.75,0,0,1,0-.75H10a.75.75,0,0,1,.75.75A.75.75,0,0,1,10,.75Z" transform="translate(1846.5 277.5)" fill="#063ab2"/>
  </g>
</svg>
