<svg xmlns="http://www.w3.org/2000/svg" width="33.602" height="33.6" viewBox="0 0 33.602 33.6">
  <g id="Group_22341" data-name="Group 22341" transform="translate(-7.199 -7.2)">
    <path id="Path_22587" data-name="Path 22587" d="M24,7.2A16.8,16.8,0,1,0,40.8,24,16.785,16.785,0,0,0,24,7.2Zm0,31.2A14.4,14.4,0,1,1,38.4,24,14.417,14.417,0,0,1,24,38.4Z"/>
    <path id="Path_22588" data-name="Path 22588" d="M24,20.4a10.794,10.794,0,0,0-9.86,6.43l2.3.77A8.4,8.4,0,0,1,24,22.8a8.144,8.144,0,0,1,5.26,1.94L26.4,27.6h7.2V20.4l-2.62,2.62A10.5,10.5,0,0,0,24,20.4Z"/>
  </g>
</svg>
