<svg id="Group_22342" data-name="Group 22342" xmlns="http://www.w3.org/2000/svg" width="33.602" height="33.6" viewBox="0 0 33.602 33.6">
  <path id="Path_22587" data-name="Path 22587" d="M24,7.2A16.8,16.8,0,1,1,7.2,24,16.786,16.786,0,0,1,24,7.2Zm0,31.2A14.4,14.4,0,1,0,9.6,24,14.417,14.417,0,0,0,24,38.4Z" transform="translate(-7.2 -7.2)"/>
  <path id="Path_22588" data-name="Path 22588" d="M23.74,20.4a10.794,10.794,0,0,1,9.86,6.43l-2.3.77a8.4,8.4,0,0,0-7.56-4.8,8.145,8.145,0,0,0-5.26,1.94l2.86,2.86h-7.2V20.4l2.62,2.62A10.5,10.5,0,0,1,23.74,20.4Z" transform="translate(-6.94 -7.2)"/>
</svg>
