<svg xmlns="http://www.w3.org/2000/svg" width="16.486" height="16.484" viewBox="0 0 16.486 16.484">
  <g id="Group_22366" data-name="Group 22366" transform="translate(-499.875 -861.641)">
    <path id="Path_22600" data-name="Path 22600" d="M40.788,4.219a.861.861,0,0,0-1.242-.029L38.83,4.9l1.217,1.217.7-.7A.865.865,0,0,0,40.788,4.219Z" transform="translate(475.349 857.702)" fill="#073bb2"/>
    <path id="Path_22601" data-name="Path 22601" d="M12.5,19.25h-3v-3l.367-.367,5.4-5.383H4.5V24.25H18.25V13.487l-5.383,5.4Z" transform="translate(495.375 853.875)" fill="#073bb2"/>
    <path id="Path_22602" data-name="Path 22602" d="M35.8,9.926l1.279-1.283L35.863,7.43,34.58,8.709H35.8Z" transform="translate(477.828 855.666)" fill="#073bb2"/>
    <path id="Path_22603" data-name="Path 22603" d="M19.5,18h1.229L27,11.717V10.5H25.783L19.5,16.771Z" transform="translate(486.625 853.875)" fill="#073bb2"/>
  </g>
</svg>