<svg xmlns="http://www.w3.org/2000/svg" width="16.07" height="16.264" viewBox="0 0 16.07 16.264">
  <path id="Path_553" data-name="Path 553" d="M.412.758A5.031,5.031,0,0,1-4.57-4.31,5.032,5.032,0,0,1,.412-9.378,5.032,5.032,0,0,1,5.393-4.31,5.031,5.031,0,0,1,.412.758M9.091,3.676l-3.932-4A6.3,6.3,0,0,0,6.566-4.31,6.215,6.215,0,0,0,.412-10.57,6.215,6.215,0,0,0-5.742-4.31,6.214,6.214,0,0,0,.412,1.951,6.062,6.062,0,0,0,4.327.518l3.935,4a.577.577,0,0,0,.828,0,.6.6,0,0,0,0-.843" transform="translate(6.242 11.07)" fill="#fff" stroke="#f7f5f5" stroke-width="1"/>
</svg>
