<svg xmlns="http://www.w3.org/2000/svg" width="19.724" height="19.361" viewBox="0 0 19.724 19.361">
  <path id="Path_83324" data-name="Path 83324" d="M112.757,151.961a1.176,1.176,0,0,1-.281-.034,3.889,3.889,0,0,1-2.289-2.026,4.662,4.662,0,0,1-.887-2.268,1.912,1.912,0,0,1,.467-1.365,9.362,9.362,0,0,1,6.608-3.142,8.573,8.573,0,0,1,3.613.938,5.772,5.772,0,0,0,2.173.714,3.129,3.129,0,0,0,2.222-1.331,1.116,1.116,0,0,1,.365-.287l.008,0a1.681,1.681,0,0,1,.721-.158c.761,0,1.5.525,2.384,1.7,1.022,1.363,1.163,1.95,1.163,2.381,0,1.265-.84,2.472-2.567,3.69h0l0,0-.011.007-.034.022a6.142,6.142,0,0,1-3.345,1.124h-.314a10.643,10.643,0,0,1-4.2-.989,12.848,12.848,0,0,0-2.089-.8,1.994,1.994,0,0,0-.453.048c-.1.028-.2.056-.289.082s-.186.054-.271.077l-.015,0a1.191,1.191,0,0,0-.232.132l-.009.006-.242.158c-.114.075-.212.14-.3.193l-.02.012a5.878,5.878,0,0,0-.493.375,6.8,6.8,0,0,1-.808.582l-.013.007A1.2,1.2,0,0,1,112.757,151.961Zm3.617-7.835a8.41,8.41,0,0,0-5.9,2.849.973.973,0,0,0-.174.658c0,.116,0,.468.752,1.766a2.976,2.976,0,0,0,1.671,1.559.2.2,0,0,0,.035,0,.206.206,0,0,0,.086-.022,6.338,6.338,0,0,0,.67-.489,5.7,5.7,0,0,1,.62-.462c.073-.045.163-.1.267-.173l.244-.16a1.787,1.787,0,0,1,.551-.273c.077-.021.158-.044.244-.069s.2-.058.31-.088l.01,0a3.006,3.006,0,0,1,.723-.079,10.366,10.366,0,0,1,2.465.88,9.664,9.664,0,0,0,3.8.906h.314a5.159,5.159,0,0,0,2.783-.952l.032-.021c1.444-1.017,2.145-1.957,2.145-2.874,0-.123,0-.5-.963-1.78-.661-.877-1.179-1.3-1.584-1.3a.681.681,0,0,0-.286.058.111.111,0,0,0-.038.028l-.005.006a4.047,4.047,0,0,1-2.967,1.688h-.014a6.817,6.817,0,0,1-2.609-.81A7.6,7.6,0,0,0,116.374,144.126Zm-3.617-2.563a1.177,1.177,0,0,1-.281-.034,3.889,3.889,0,0,1-2.289-2.026,4.661,4.661,0,0,1-.887-2.268,1.912,1.912,0,0,1,.467-1.365,9.362,9.362,0,0,1,6.608-3.142,8.574,8.574,0,0,1,3.613.938,5.773,5.773,0,0,0,2.173.714,3.129,3.129,0,0,0,2.222-1.331,1.115,1.115,0,0,1,.361-.285,1.58,1.58,0,0,1,.733-.164c.767,0,1.5.526,2.385,1.7,1.021,1.362,1.162,1.949,1.162,2.38,0,1.265-.84,2.472-2.567,3.69h0l0,0-.011.007-.033.022a6.141,6.141,0,0,1-3.345,1.124h-.314a10.643,10.643,0,0,1-4.2-.989,12.856,12.856,0,0,0-2.089-.8,2,2,0,0,0-.453.048c-.1.028-.2.056-.289.082s-.185.054-.27.077l-.015,0a1.192,1.192,0,0,0-.232.132c-.2.133-.386.256-.548.357l-.02.012c-.02.012-.116.077-.5.378a7.516,7.516,0,0,1-.791.575l-.031.017A1.254,1.254,0,0,1,112.757,141.563Zm3.617-7.835a8.41,8.41,0,0,0-5.9,2.849.973.973,0,0,0-.174.658c0,.116,0,.468.752,1.766a2.976,2.976,0,0,0,1.671,1.559.2.2,0,0,0,.035,0,.247.247,0,0,0,.1-.024,7.182,7.182,0,0,0,.661-.487,6.6,6.6,0,0,1,.62-.462c.106-.066.279-.176.507-.33a1.794,1.794,0,0,1,.555-.276c.077-.021.158-.044.243-.069s.2-.058.31-.088l.01,0a3.01,3.01,0,0,1,.723-.079,10.367,10.367,0,0,1,2.465.88,9.664,9.664,0,0,0,3.8.906h.314a5.159,5.159,0,0,0,2.783-.952l.032-.021c1.444-1.017,2.145-1.957,2.145-2.874,0-.123,0-.5-.963-1.78-.657-.878-1.175-1.3-1.584-1.3a.611.611,0,0,0-.274.052l-.008,0a.115.115,0,0,0-.041.029l-.005.006a4.047,4.047,0,0,1-2.967,1.688h-.014a6.817,6.817,0,0,1-2.609-.81A7.6,7.6,0,0,0,116.374,133.728Z" transform="translate(-109.3 -132.6)" fill="#303030"/>
</svg>
