<svg xmlns="http://www.w3.org/2000/svg" width="21.534" height="23.906" viewBox="0 0 21.534 23.906">
  <g id="Group_25787" data-name="Group 25787" transform="translate(626.275 20730.953)">
    <path id="box_5652859" d="M46.326,15.42V5.528a.642.642,0,0,0-.641-.641H35.447a.83.83,0,0,1-.757-.48L33.121,1.083a.62.62,0,0,0-.58-.367H27.865a.641.641,0,0,0-.641.641V15.42a.642.642,0,0,0,.641.641H31.1a6.51,6.51,0,0,1,13,0h1.582a.642.642,0,0,0,.641-.641ZM37.6,22.19A5.794,5.794,0,1,0,31.809,16.4,5.794,5.794,0,0,0,37.6,22.19Zm7.324-20.2a.123.123,0,0,1,.121.122V4.171h-9.6a.113.113,0,0,1-.11-.07l-.994-2.107Zm.837,2.179V2.116a.838.838,0,0,0-.837-.837H34l-.236-.5A1.345,1.345,0,0,0,32.541,0H27.865a1.358,1.358,0,0,0-1.357,1.357V15.42a1.358,1.358,0,0,0,1.357,1.357H31.1a6.509,6.509,0,0,0,13,0h1.585a1.358,1.358,0,0,0,1.357-1.357V5.528a1.358,1.358,0,0,0-1.279-1.355Z" transform="translate(-652.283 -20730.453)" fill="#1f3bb3" fill-rule="evenodd"/>
    <path id="box_5652859_-_Outline" data-name="box_5652859 - Outline" d="M37.6,23.406a7.015,7.015,0,0,1-6.954-6.129H27.865a1.862,1.862,0,0,1-1.857-1.856V1.356A1.861,1.861,0,0,1,27.864-.5h4.685A1.851,1.851,0,0,1,34.222.567l.1.211H44.927a1.34,1.34,0,0,1,1.337,1.337V3.763a1.862,1.862,0,0,1,1.279,1.764V15.42a1.862,1.862,0,0,1-1.856,1.857h-1.13A7.014,7.014,0,0,1,37.6,23.406Zm0-12.3A5.294,5.294,0,1,0,42.9,16.4,5.3,5.3,0,0,0,37.6,11.1Zm6.96,4.458h1.123a.142.142,0,0,0,.141-.136v-9.9a.142.142,0,0,0-.141-.141H35.447a1.336,1.336,0,0,1-1.211-.77l-1.571-3.33a.12.12,0,0,0-.11-.071h-4.69a.141.141,0,0,0-.141.141V15.42a.142.142,0,0,0,.141.141h2.777a7.011,7.011,0,0,1,13.92,0ZM35.687,3.671h8.861V2.494H35.131Z" transform="translate(-652.283 -20730.453)" fill="#1f3bb3"/>
    <path id="Line_476" data-name="Line 476" d="M-9.553-1.992a.446.446,0,0,1-.316-.131.447.447,0,0,1,0-.633l7.113-7.113a.447.447,0,0,1,.633,0,.447.447,0,0,1,0,.633L-9.236-2.123A.446.446,0,0,1-9.553-1.992Z" transform="translate(-608.684 -20707.949)" fill="#1f3bb3"/>
    <path id="Line_476_-_Outline" data-name="Line 476 - Outline" d="M-9.553-1.492a.941.941,0,0,1-.67-.278.941.941,0,0,1-.277-.67.941.941,0,0,1,.278-.67l7.113-7.113a.941.941,0,0,1,.67-.277.941.941,0,0,1,.67.277.948.948,0,0,1,0,1.34L-8.883-1.769A.941.941,0,0,1-9.553-1.492Z" transform="translate(-608.684 -20707.949)" fill="#1f3bb3"/>
  </g>
</svg>
