<svg xmlns="http://www.w3.org/2000/svg" width="53.858" height="42.281" viewBox="0 0 53.858 42.281">
  <g id="cloud-computing_568717_1_" data-name="cloud-computing_568717(1)" transform="translate(0 -55.032)">
    <g id="Group_25799" data-name="Group 25799" transform="translate(0 55.032)">
      <g id="Group_25798" data-name="Group 25798" transform="translate(0 0)">
        <path id="Path_26905" data-name="Path 26905" d="M44.873,69.041A18.512,18.512,0,0,0,8.456,72.2a10.1,10.1,0,0,0,1.683,20.06h8.414V88.9H10.139a6.732,6.732,0,1,1,0-13.463,1.683,1.683,0,0,0,1.683-1.683,15.146,15.146,0,0,1,30.006-2.945,1.683,1.683,0,0,0,1.43,1.346A8.414,8.414,0,0,1,42.113,88.9H35.382v3.366h6.732a11.78,11.78,0,0,0,2.76-23.224Z" transform="translate(0 -55.032)" fill="#aaaa"/>
        <path id="Path_26906" data-name="Path 26906" d="M187.767,249.5l-6.732,6.732,2.373,2.373,3.871-3.854V270.89h3.366V254.751L194.5,258.6l2.373-2.373-6.732-6.732A1.683,1.683,0,0,0,187.767,249.5Z" transform="translate(-161.994 -228.608)" fill="#aaaa"/>
      </g>
    </g>
  </g>
</svg>
