<svg id="surface1" xmlns="http://www.w3.org/2000/svg" width="50.858" height="54.644" viewBox="0 0 50.858 54.644">
  <path id="Path_22674" data-name="Path 22674" d="M38.1,23.655V13.314a1.184,1.184,0,0,0-.338-.786L25.9.353A1.2,1.2,0,0,0,25.051,0H6.245A6.2,6.2,0,0,0,0,6.161V40.92a6.157,6.157,0,0,0,6.245,6.116H21.089a16.1,16.1,0,0,0,13.725,7.608,15.877,15.877,0,0,0,16.044-15.66A15.8,15.8,0,0,0,38.1,23.655ZM26.216,4l7.958,8.188H29.012a2.783,2.783,0,0,1-2.8-2.744ZM6.245,44.758A3.86,3.86,0,0,1,2.33,40.92V6.161A3.891,3.891,0,0,1,6.245,2.278h17.64V9.442a5.08,5.08,0,0,0,5.127,5.022H35.77v8.895c-.349-.011-.629-.045-.932-.045a16.475,16.475,0,0,0-10.626,3.918H9.414a1.139,1.139,0,1,0,0,2.278h12.63a18.016,18.016,0,0,0-2.051,3.531H9.414a1.139,1.139,0,1,0,0,2.278h9.822a15.3,15.3,0,0,0,.7,9.453H6.245Zm28.581,7.619A13.385,13.385,0,1,1,48.516,39,13.553,13.553,0,0,1,34.826,52.377Zm0,0" fill="#707070"/>
  <path id="Path_22675" data-name="Path 22675" d="M76.716,203.962h11.8a1.139,1.139,0,1,0,0-2.278h-11.8a1.139,1.139,0,1,0,0,2.278Zm0,0" transform="translate(-67.302 -180.159)" fill="#707070"/>
  <path id="Path_22676" data-name="Path 22676" d="M254.4,283.575a1.175,1.175,0,0,0-1.7,0l-6.828,7.164a1.117,1.117,0,0,0,.058,1.606,1.209,1.209,0,0,0,1.666-.057l4.824-5.045v12.436a1.166,1.166,0,0,0,2.33,0V287.243l4.788,5.045a1.182,1.182,0,0,0,.851.364,1.2,1.2,0,0,0,.792-.308,1.117,1.117,0,0,0,.058-1.606Zm0,0" transform="translate(-218.748 -252.985)" fill="#707070"/>
</svg>
