<?xml version="1.0" encoding="utf-8"?>
<!-- Generator: Adobe Illustrator 16.0.4, SVG Export Plug-In . SVG Version: 6.00 Build 0)  -->
<!DOCTYPE svg PUBLIC "-//W3C//DTD SVG 1.1//EN" "http://www.w3.org/Graphics/SVG/1.1/DTD/svg11.dtd">
<svg version="1.1" id="Layer_1" xmlns="http://www.w3.org/2000/svg" xmlns:xlink="http://www.w3.org/1999/xlink" x="0px" y="0px"
	 width="32px" height="32px" viewBox="0 0 32 32" enable-background="new 0 0 32 32" xml:space="preserve">
<g>
	<path fill="#073BB2" d="M16,1C7.729,1,1,7.729,1,16c0,7.961,6.223,14.539,14.167,14.977l0.042,0.004C15.471,30.993,15.734,31,16,31
		s0.529-0.007,0.791-0.021l0.05-0.002C24.779,30.535,31,23.957,31,16C31,7.729,24.271,1,16,1z M21.318,17.193l-0.379,0.367
		c-1.306,1.258-3.06,1.948-4.939,1.948s-3.636-0.692-4.943-1.952l-0.384-0.361l-0.47,0.25c-2.804,1.488-4.733,4.029-5.458,7.182
		C2.824,22.129,1.811,19.152,1.811,16C1.811,8.176,8.176,1.811,16,1.811S30.189,8.176,30.189,16c0,3.152-1.015,6.13-2.935,8.626
		c-0.726-3.149-2.655-5.692-5.461-7.183L21.318,17.193z"/>
	<path fill="#073BB2" d="M16,4.882c-3.842,0-6.966,3.124-6.966,6.965c0,3.842,3.125,6.969,6.966,6.969s6.965-3.125,6.965-6.966
		C22.965,8.008,19.841,4.882,16,4.882z"/>
</g>
</svg>
