<svg id="Group_22172" data-name="Group 22172" xmlns="http://www.w3.org/2000/svg" xmlns:xlink="http://www.w3.org/1999/xlink" width="23.314" height="23.309" viewBox="0 0 23.314 23.309">
  <defs>
    <clipPath id="clip-path">
      <rect id="Rectangle_879" data-name="Rectangle 879" width="23.314" height="23.309" fill="#366ae1"/>
    </clipPath>
  </defs>
  <g id="Group_22171" data-name="Group 22171" clip-path="url(#clip-path)">
    <path id="Path_22551" data-name="Path 22551" d="M20.079,23.308H6.784a.742.742,0,0,0-.124-.042,3.633,3.633,0,0,1-3.024-2.881c-.043-.213-.065-.43-.1-.655-.05-.005-.094-.012-.138-.014A3.638,3.638,0,0,1,.158,17.14C.092,16.924.052,16.7,0,16.48V3.234a.783.783,0,0,0,.041-.126A3.628,3.628,0,0,1,3.6.005q6.281-.012,12.563,0a3.619,3.619,0,0,1,3.513,2.909c.044.22.068.443.1.668.053,0,.09.009.128.011a3.623,3.623,0,0,1,3.4,3.579q.016,6.268,0,12.537A3.635,3.635,0,0,1,20.539,23.2c-.153.038-.307.07-.46.1M9.857,17.9q3.038,0,6.077,0a2.661,2.661,0,0,0,.543-.038,1.822,1.822,0,0,0,1.457-1.882q0-6.087,0-12.173A1.837,1.837,0,0,0,15.95,1.823H3.8A1.831,1.831,0,0,0,1.821,3.792c0,4.043.016,8.085-.01,12.128A1.92,1.92,0,0,0,3.8,17.913c2.017-.036,4.036-.01,6.054-.01M5.4,19.723a1.8,1.8,0,0,0,1.77,1.76c1.1.012,2.2,0,3.3,0q4.575,0,9.15,0a1.815,1.815,0,0,0,1.854-1.572,2.305,2.305,0,0,0,.019-.363q0-6.11,0-12.22a1.894,1.894,0,0,0-.366-1.194,1.776,1.776,0,0,0-1.371-.726V5.7q0,5.12,0,10.24a4.33,4.33,0,0,1-.112,1.013,3.613,3.613,0,0,1-3.6,2.765q-5.178.005-10.356,0Z" transform="translate(0 0.001)" fill="#366ae1"/>
  </g>
</svg>
