<svg xmlns="http://www.w3.org/2000/svg" width="23.965" height="23.043" viewBox="0 0 23.965 23.043">
  <g id="Group_22364" data-name="Group 22364" transform="translate(-252.018 -459.121)">
    <g id="connection" transform="translate(245.018 452.121)">
      <path id="Path_576" data-name="Path 576" d="M18.6,22H8.461A.462.462,0,0,0,8,22.461v6.452a.462.462,0,0,0,.461.461h3.687l1.383,1.843,1.383-1.843H18.6C18.854,29.373,18.854,22,18.6,22Z" transform="translate(-0.539 -8.087)" fill="#3952bb"/>
      <path id="Path_577" data-name="Path 577" d="M13.954,16.176H12.069a.461.461,0,0,0-.461.461v1.885a.461.461,0,0,0,.461.461h1.885a.461.461,0,0,0,.461-.461V16.637A.461.461,0,0,0,13.954,16.176Zm-.461,1.885s-.722.241-.963,0,0-.963,0-.963h.963v.963Zm3.687-1.885H15.3a.461.461,0,0,0-.461.461v1.885a.461.461,0,0,0,.461.461H17.18a.461.461,0,0,0,.461-.461V16.637A.461.461,0,0,0,17.18,16.176Zm-.461,1.885h-.963V17.1h.963Zm-5.991-1.885H8.843a.461.461,0,0,0-.461.461v1.885a.461.461,0,0,0,.461.461h1.885a.461.461,0,0,0,.461-.461V16.637A.461.461,0,0,0,10.728,16.176Zm-.461,1.885H9.3V17.1h.963Zm7.793-4.609H7.922A.923.923,0,0,0,7,14.374v6.452a.923.923,0,0,0,.922.922h3.456l1.244,1.659a.46.46,0,0,0,.737,0L14.6,21.747h3.456a.923.923,0,0,0,.922-.922V14.374a.923.923,0,0,0-.922-.922Zm-3.687,7.374a.46.46,0,0,0-.369.184l-1.014,1.352L11.977,21.01a.46.46,0,0,0-.369-.184H7.922V14.374H18.061v6.452ZM30.043,7H25.434a.923.923,0,0,0-.922.922V12.53a.923.923,0,0,0,.922.922h4.609a.923.923,0,0,0,.922-.922V7.922A.923.923,0,0,0,30.043,7Zm-4.609,5.53V7.922h4.609V12.53ZM30.043,15.3H25.434a.923.923,0,0,0-.922.922v4.609a.923.923,0,0,0,.922.922h4.609a.923.923,0,0,0,.922-.922V16.217a.923.923,0,0,0-.922-.922Zm-4.609,5.53V16.217h4.609v4.609Zm4.609,2.765H25.434a.923.923,0,0,0-.922.922v4.609a.923.923,0,0,0,.922.922h4.609a.923.923,0,0,0,.922-.922V24.513a.923.923,0,0,0-.922-.922Zm-4.609,5.53V24.513h4.609v4.609ZM22.208,10.687v7.374h.922a.461.461,0,0,1,0,.922h-.922v7.374h.922a.461.461,0,0,1,0,.922H21.747a.461.461,0,0,1-.461-.461V18.982h-.922a.461.461,0,1,1,0-.922h.922V10.226a.461.461,0,0,1,.461-.461H23.13a.461.461,0,0,1,0,.922Z" fill="#3952bb"/>
    </g>
    <path id="Path_22575" data-name="Path 22575" d="M-2.33-2.5h.475a1.328,1.328,0,0,0-.17-.5A1.236,1.236,0,0,0-2.35-3.36,1.425,1.425,0,0,0-2.8-3.58a1.835,1.835,0,0,0-.53-.075,1.708,1.708,0,0,0-.727.148,1.5,1.5,0,0,0-.53.4,1.765,1.765,0,0,0-.323.6,2.382,2.382,0,0,0-.11.733,2.517,2.517,0,0,0,.1.73,1.686,1.686,0,0,0,.307.59,1.424,1.424,0,0,0,.515.392A1.721,1.721,0,0,0-3.365.08,1.5,1.5,0,0,0-2.285-.3a1.622,1.622,0,0,0,.465-1.05H-2.3a1.362,1.362,0,0,1-.09.41.99.99,0,0,1-.208.328.945.945,0,0,1-.315.215,1.06,1.06,0,0,1-.417.078,1.175,1.175,0,0,1-.55-.12,1.074,1.074,0,0,1-.378-.322,1.381,1.381,0,0,1-.218-.475,2.313,2.313,0,0,1-.07-.577,2.068,2.068,0,0,1,.07-.54,1.392,1.392,0,0,1,.218-.463,1.081,1.081,0,0,1,.375-.322,1.16,1.16,0,0,1,.548-.12,1.1,1.1,0,0,1,.648.19A.883.883,0,0,1-2.33-2.5Zm1.575.635V-3.17h.93A.874.874,0,0,1,.767-3a.62.62,0,0,1,.187.487.628.628,0,0,1-.187.49.848.848,0,0,1-.593.165ZM-1.23-3.57V0h.475V-1.46H.335a1.087,1.087,0,0,0,.817-.275,1.06,1.06,0,0,0,.278-.78,1.051,1.051,0,0,0-.278-.777A1.108,1.108,0,0,0,.335-3.57ZM4.52-2.5h.475a1.328,1.328,0,0,0-.17-.5A1.236,1.236,0,0,0,4.5-3.36a1.425,1.425,0,0,0-.445-.22,1.835,1.835,0,0,0-.53-.075,1.708,1.708,0,0,0-.728.148,1.5,1.5,0,0,0-.53.4,1.765,1.765,0,0,0-.322.6,2.382,2.382,0,0,0-.11.733,2.517,2.517,0,0,0,.1.73,1.686,1.686,0,0,0,.308.59,1.424,1.424,0,0,0,.515.392A1.721,1.721,0,0,0,3.485.08,1.5,1.5,0,0,0,4.565-.3a1.622,1.622,0,0,0,.465-1.05H4.555a1.362,1.362,0,0,1-.09.41.99.99,0,0,1-.208.328.945.945,0,0,1-.315.215,1.06,1.06,0,0,1-.417.078,1.175,1.175,0,0,1-.55-.12A1.074,1.074,0,0,1,2.6-.757a1.381,1.381,0,0,1-.217-.475,2.313,2.313,0,0,1-.07-.577,2.068,2.068,0,0,1,.07-.54A1.392,1.392,0,0,1,2.6-2.812a1.081,1.081,0,0,1,.375-.322,1.16,1.16,0,0,1,.548-.12,1.1,1.1,0,0,1,.648.19A.883.883,0,0,1,4.52-2.5Z" transform="translate(258 471)" fill="#fff"/>
  </g>
</svg>
