<svg xmlns="http://www.w3.org/2000/svg" width="22.907" height="21.114" viewBox="0 0 22.907 21.114">
  <g id="Group_22250" data-name="Group 22250" transform="translate(-1624.546 -109.591)">
    <path id="Path_22571" data-name="Path 22571" d="M22.422,17.655a1.283,1.283,0,0,0-1.816-1.814L17.888,18.56V7.833a1.283,1.283,0,1,0-2.565,0V18.56l-2.716-2.719a1.283,1.283,0,1,0-1.816,1.814L15.7,22.563a1.322,1.322,0,0,0,1.814,0Z" transform="translate(1619.395 103.042)" fill="#073bb2"/>
    <path id="Path_22572" data-name="Path 22572" d="M6.516,21.573A1.285,1.285,0,0,0,7.8,22.854H28.139a1.283,1.283,0,1,0,0-2.565H7.8a1.285,1.285,0,0,0-1.284,1.284" transform="translate(1618.03 107.851)" fill="#073bb2"/>
  </g>
</svg>
