<svg xmlns="http://www.w3.org/2000/svg" width="20.365" height="20.365" viewBox="0 0 20.365 20.365">
  <path id="download" d="M11.455,1.273a1.273,1.273,0,0,0-2.546,0v9.653L5.99,8.007a1.274,1.274,0,0,0-1.8,1.8L9.279,14.9a1.275,1.275,0,0,0,1.8,0l5.091-5.091a1.274,1.274,0,1,0-1.8-1.8l-2.916,2.919ZM2.546,14A2.548,2.548,0,0,0,0,16.546v1.273a2.548,2.548,0,0,0,2.546,2.546H17.819a2.548,2.548,0,0,0,2.546-2.546V16.546A2.548,2.548,0,0,0,17.819,14H13.782l-1.8,1.8a2.545,2.545,0,0,1-3.6,0L6.583,14Zm14.637,2.227a.955.955,0,1,1-.955.955A.955.955,0,0,1,17.183,16.228Z" fill="#fff"/>
</svg>
