<svg xmlns="http://www.w3.org/2000/svg" width="13.851" height="13.969" viewBox="0 0 13.851 13.969">
  <g id="Group_22375" data-name="Group 22375" transform="translate(-122 -196.866)">
    <g id="filter" transform="translate(120.874 195.866)">
      <g id="Group_22367" data-name="Group 22367" transform="translate(1.126 1)">
        <path id="Path_22566" data-name="Path 22566" d="M7.108,14.969h0a.813.813,0,0,1-.813-.811V8.172A.406.406,0,0,0,6.188,7.9L1.4,2.7A1.012,1.012,0,0,1,2.141,1H13.962a1.013,1.013,0,0,1,.745,1.7L9.918,7.9a.412.412,0,0,0-.108.277v3.694a1.28,1.28,0,0,1-.405.882L7.694,14.713A.821.821,0,0,1,7.108,14.969ZM2.141,1.806a.206.206,0,0,0-.151.346l4.79,5.2a1.208,1.208,0,0,1,.321.823l0,5.988,1.65-1.891c.225-.269.247-.307.247-.4V8.175a1.218,1.218,0,0,1,.32-.822l4.792-5.2a.206.206,0,0,0-.151-.346H2.141Z" transform="translate(-1.126 -1)" fill="#073bb2"/>
      </g>
    </g>
  </g>
</svg>
