<svg xmlns="http://www.w3.org/2000/svg" width="32" height="32" viewBox="0 0 32 32">
  <g id="Group_22118" data-name="Group 22118" transform="translate(-1748 -1750)">
    <path id="Path_615" data-name="Path 615" d="M20.536,15.121,12.879,7.465a1,1,0,0,0-1.415,1.414L18.586,16l-7.122,7.121a1,1,0,1,0,1.415,1.414l7.657-7.656A.983.983,0,0,0,20.8,16a.983.983,0,0,0-.259-.879M16,0A16,16,0,1,0,32,16,16,16,0,0,0,16,0m0,30A14,14,0,1,1,30,16,14,14,0,0,1,16,30" transform="translate(1748 1750)" fill="#3952bb"/>
  </g>
</svg>
