<svg id="US" xmlns="http://www.w3.org/2000/svg" width="30" height="17.396" viewBox="0 0 30 17.396">
  <g id="Group_22260" data-name="Group 22260">
    <path id="Path_22575" data-name="Path 22575" d="M0,0H30V17.4H0Z" fill="#f7fcff" fill-rule="evenodd"/>
    <path id="Path_22576" data-name="Path 22576" d="M0,10.63v1.45H30V10.63Zm0,2.66v1.45H30V13.29ZM0,5.317v1.45H30V5.317Zm0,10.63V17.4H30v-1.45ZM0,7.973v1.45H30V7.973ZM0,0V1.45H30V0ZM0,2.657v1.45H30V2.657Z" fill="#e31d1c" fill-rule="evenodd"/>
    <path id="Path_22577" data-name="Path 22577" d="M0,0H14.019V9.112H0Z" fill="#2e42a5"/>
    <path id="Path_22578" data-name="Path 22578" d="M1.979,3.659l-.508.357.172-.638-.452-.4h.592l.2-.519.231.519h.5l-.4.4.154.638Zm2.8,0-.508.357.172-.638-.452-.4h.592l.2-.519.231.519h.5l-.4.4.154.638Zm2.3.357.508-.357.494.357-.154-.638.4-.4h-.5L7.586,2.46l-.2.519H6.8l.452.4Zm3.312-.357-.508.357.172-.638-.452-.4h.592l.2-.519.231.519h.5l-.4.4.154.638ZM1.47,6.82l.508-.357.494.357-.154-.634.4-.4h-.5l-.231-.519-.2.519H1.19l.452.4Zm3.312-.357-.508.357.172-.634-.452-.4h.592l.2-.519.231.519h.5l-.4.4.154.634Zm2.3.357.508-.357.494.357-.154-.634.4-.4h-.5l-.231-.519-.2.519H6.8l.452.4Zm3.312-.357-.508.357.172-.634-.452-.4h.592l.2-.519.231.519h.5l-.4.4.154.634ZM1.47,9.624l.508-.357.494.357-.154-.634.4-.4h-.5l-.231-.519-.2.519H1.19l.452.4Zm3.312-.357-.508.357.172-.634-.452-.4h.592l.2-.519.231.519h.5l-.4.4.154.634Zm2.3.357.508-.357.494.357-.154-.634.4-.4h-.5l-.231-.519-.2.519H6.8l.452.4Zm3.312-.357-.508.357.172-.634-.452-.4h.592l.2-.519.231.519h.5l-.4.4.154.634Zm2.3-5.25.508-.357.494.357-.154-.634.4-.4h-.5l-.231-.519-.2.519h-.592l.452.4Zm.508,2.446-.508.357.172-.634-.452-.4H13l.2-.519.231.519h.5l-.4.4.154.634Zm-.508,3.161.508-.357.494.357-.154-.634.4-.4h-.5l-.231-.519-.2.519h-.592l.452.4ZM3.38,5.061l-.508.357.172-.638-.452-.4h.592l.2-.519.231.519h.5l-.4.4.154.638Zm2.3.357.508-.357.494.357L6.524,4.78l.4-.4h-.5l-.231-.519-.2.519H5.4l.452.4Zm3.312-.357-.508.357.172-.638-.452-.4h.592l.2-.519.231.519h.5l-.4.4.154.638ZM2.872,8.222l.508-.357.494.357L3.72,7.584l.4-.4h-.5L3.38,6.666l-.2.519H2.592l.452.4Zm3.312-.357-.508.357.172-.638-.452-.4h.592l.2-.519.231.519h.5l-.4.4.154.638Zm2.3.357.508-.357.494.357-.154-.638.4-.4h-.5l-.231-.519-.2.519H8.2l.452.4Zm3.312-3.161-.508.357.172-.638L11,4.381H11.6l.2-.519.231.519h.5l-.4.4.154.638Zm-.508,3.161.508-.357.494.357-.154-.638.4-.4h-.5l-.231-.519-.2.519H11l.452.4Z" transform="translate(-0.773 -1.598)" fill="#f7fcff" fill-rule="evenodd"/>
  </g>
  <path id="Path_22579" data-name="Path 22579" d="M0,0H23.287V17.4H0Z" fill="none"/>
</svg>
